<mxfile host="Electron" modified="2024-04-09T13:19:53.827Z" agent="Mozilla/5.0 (Windows NT 10.0; Win64; x64) AppleWebKit/537.36 (KHTML, like Gecko) draw.io/23.1.5 Chrome/120.0.6099.109 Electron/28.1.0 Safari/537.36" etag="zagxRMK3XLv_SxKOqWrb" version="23.1.5" type="device">
  <diagram name="Page-1" id="9f46799a-70d6-7492-0946-bef42562c5a5">
    <mxGraphModel dx="2198" dy="-23" grid="1" gridSize="10" guides="1" tooltips="1" connect="1" arrows="1" fold="1" page="1" pageScale="1" pageWidth="1100" pageHeight="850" background="none" math="0" shadow="0">
      <root>
        <mxCell id="0" />
        <mxCell id="1" parent="0" />
        <mxCell id="7cFEA5xQlV3GQWKPo2S1-25" value="Layers" style="swimlane;fontStyle=0;childLayout=stackLayout;horizontal=1;startSize=30;horizontalStack=0;resizeParent=1;resizeParentMax=0;resizeLast=0;collapsible=1;marginBottom=0;whiteSpace=wrap;html=1;" vertex="1" parent="1">
          <mxGeometry x="160" y="1065" width="130" height="210" as="geometry">
            <mxRectangle x="150" y="933.5" width="80" height="30" as="alternateBounds" />
          </mxGeometry>
        </mxCell>
        <mxCell id="7cFEA5xQlV3GQWKPo2S1-84" value="input" style="text;strokeColor=none;fillColor=none;align=left;verticalAlign=middle;spacingLeft=4;spacingRight=4;overflow=hidden;points=[[0,0.5],[1,0.5]];portConstraint=eastwest;rotatable=0;whiteSpace=wrap;html=1;" vertex="1" parent="7cFEA5xQlV3GQWKPo2S1-25">
          <mxGeometry y="30" width="130" height="30" as="geometry" />
        </mxCell>
        <mxCell id="7cFEA5xQlV3GQWKPo2S1-26" value="Layer 1" style="text;strokeColor=none;fillColor=none;align=left;verticalAlign=middle;spacingLeft=4;spacingRight=4;overflow=hidden;points=[[0,0.5],[1,0.5]];portConstraint=eastwest;rotatable=0;whiteSpace=wrap;html=1;" vertex="1" parent="7cFEA5xQlV3GQWKPo2S1-25">
          <mxGeometry y="60" width="130" height="30" as="geometry" />
        </mxCell>
        <mxCell id="7cFEA5xQlV3GQWKPo2S1-28" value="...." style="text;strokeColor=none;fillColor=none;align=left;verticalAlign=middle;spacingLeft=4;spacingRight=4;overflow=hidden;points=[[0,0.5],[1,0.5]];portConstraint=eastwest;rotatable=0;whiteSpace=wrap;html=1;" vertex="1" parent="7cFEA5xQlV3GQWKPo2S1-25">
          <mxGeometry y="90" width="130" height="30" as="geometry" />
        </mxCell>
        <mxCell id="7cFEA5xQlV3GQWKPo2S1-82" value="output" style="text;strokeColor=none;fillColor=none;align=left;verticalAlign=middle;spacingLeft=4;spacingRight=4;overflow=hidden;points=[[0,0.5],[1,0.5]];portConstraint=eastwest;rotatable=0;whiteSpace=wrap;html=1;" vertex="1" parent="7cFEA5xQlV3GQWKPo2S1-25">
          <mxGeometry y="120" width="130" height="30" as="geometry" />
        </mxCell>
        <mxCell id="7cFEA5xQlV3GQWKPo2S1-98" value="weight &amp;amp; bias" style="text;strokeColor=none;fillColor=none;align=left;verticalAlign=middle;spacingLeft=4;spacingRight=4;overflow=hidden;points=[[0,0.5],[1,0.5]];portConstraint=eastwest;rotatable=0;whiteSpace=wrap;html=1;" vertex="1" parent="7cFEA5xQlV3GQWKPo2S1-25">
          <mxGeometry y="150" width="130" height="30" as="geometry" />
        </mxCell>
        <mxCell id="7cFEA5xQlV3GQWKPo2S1-99" value="input &amp;amp; output layer" style="text;strokeColor=none;fillColor=none;align=left;verticalAlign=middle;spacingLeft=4;spacingRight=4;overflow=hidden;points=[[0,0.5],[1,0.5]];portConstraint=eastwest;rotatable=0;whiteSpace=wrap;html=1;" vertex="1" parent="7cFEA5xQlV3GQWKPo2S1-25">
          <mxGeometry y="180" width="130" height="30" as="geometry" />
        </mxCell>
        <mxCell id="7cFEA5xQlV3GQWKPo2S1-32" value="GVL_NN" style="swimlane;fontStyle=0;childLayout=stackLayout;horizontal=1;startSize=30;horizontalStack=0;resizeParent=1;resizeParentMax=0;resizeLast=0;collapsible=1;marginBottom=0;whiteSpace=wrap;html=1;" vertex="1" parent="1">
          <mxGeometry x="150" y="1330" width="140" height="60" as="geometry" />
        </mxCell>
        <mxCell id="7cFEA5xQlV3GQWKPo2S1-33" value="NN" style="text;strokeColor=none;fillColor=none;align=left;verticalAlign=middle;spacingLeft=4;spacingRight=4;overflow=hidden;points=[[0,0.5],[1,0.5]];portConstraint=eastwest;rotatable=0;whiteSpace=wrap;html=1;" vertex="1" parent="7cFEA5xQlV3GQWKPo2S1-32">
          <mxGeometry y="30" width="140" height="30" as="geometry" />
        </mxCell>
        <mxCell id="7cFEA5xQlV3GQWKPo2S1-36" value="Generator" style="html=1;whiteSpace=wrap;" vertex="1" parent="1">
          <mxGeometry x="-80" y="1190" width="110" height="50" as="geometry" />
        </mxCell>
        <mxCell id="7cFEA5xQlV3GQWKPo2S1-37" value="Generate" style="endArrow=open;endSize=12;dashed=1;html=1;rounded=0;entryX=0;entryY=0;entryDx=0;entryDy=0;exitX=1;exitY=1;exitDx=0;exitDy=0;" edge="1" parent="1" source="7cFEA5xQlV3GQWKPo2S1-36" target="7cFEA5xQlV3GQWKPo2S1-32">
          <mxGeometry width="160" relative="1" as="geometry">
            <mxPoint x="60" y="1240" as="sourcePoint" />
            <mxPoint x="700" y="1250" as="targetPoint" />
          </mxGeometry>
        </mxCell>
        <mxCell id="7cFEA5xQlV3GQWKPo2S1-38" value="Generate" style="endArrow=open;endSize=12;dashed=1;html=1;rounded=0;entryX=0;entryY=0.5;entryDx=0;entryDy=0;exitX=1;exitY=0;exitDx=0;exitDy=0;" edge="1" parent="1" source="7cFEA5xQlV3GQWKPo2S1-36" target="7cFEA5xQlV3GQWKPo2S1-28">
          <mxGeometry width="160" relative="1" as="geometry">
            <mxPoint x="40" y="1250" as="sourcePoint" />
            <mxPoint x="160" y="1340" as="targetPoint" />
          </mxGeometry>
        </mxCell>
        <mxCell id="7cFEA5xQlV3GQWKPo2S1-39" value="Generate" style="endArrow=open;endSize=12;dashed=1;html=1;rounded=0;entryX=-0.014;entryY=-0.077;entryDx=0;entryDy=0;exitX=0.682;exitY=-0.02;exitDx=0;exitDy=0;entryPerimeter=0;exitPerimeter=0;" edge="1" parent="1" source="7cFEA5xQlV3GQWKPo2S1-36" target="7cFEA5xQlV3GQWKPo2S1-70">
          <mxGeometry width="160" relative="1" as="geometry">
            <mxPoint x="50" y="1260" as="sourcePoint" />
            <mxPoint x="170" y="1350" as="targetPoint" />
          </mxGeometry>
        </mxCell>
        <mxCell id="7cFEA5xQlV3GQWKPo2S1-40" value="pointer to" style="endArrow=open;endSize=12;dashed=1;html=1;rounded=0;entryX=1;entryY=0.5;entryDx=0;entryDy=0;exitX=0.038;exitY=0.971;exitDx=0;exitDy=0;exitPerimeter=0;" edge="1" parent="1" source="7cFEA5xQlV3GQWKPo2S1-91" target="7cFEA5xQlV3GQWKPo2S1-33">
          <mxGeometry x="0.3777" y="17" width="160" relative="1" as="geometry">
            <mxPoint x="410" y="1060" as="sourcePoint" />
            <mxPoint x="410" y="1360" as="targetPoint" />
            <Array as="points" />
            <mxPoint as="offset" />
          </mxGeometry>
        </mxCell>
        <mxCell id="7cFEA5xQlV3GQWKPo2S1-41" value="Pyads" style="html=1;whiteSpace=wrap;" vertex="1" parent="1">
          <mxGeometry x="-80" y="1330" width="110" height="50" as="geometry" />
        </mxCell>
        <mxCell id="7cFEA5xQlV3GQWKPo2S1-43" value="Send" style="endArrow=open;endSize=12;dashed=1;html=1;rounded=0;exitX=1;exitY=0.5;exitDx=0;exitDy=0;entryX=0;entryY=0.5;entryDx=0;entryDy=0;" edge="1" parent="1" source="7cFEA5xQlV3GQWKPo2S1-41" target="7cFEA5xQlV3GQWKPo2S1-33">
          <mxGeometry width="160" relative="1" as="geometry">
            <mxPoint x="90" y="1350" as="sourcePoint" />
            <mxPoint x="150" y="1405" as="targetPoint" />
          </mxGeometry>
        </mxCell>
        <mxCell id="7cFEA5xQlV3GQWKPo2S1-44" value="Function:&lt;br&gt;&lt;br&gt;ActivationFunction" style="verticalAlign=top;align=left;spacingTop=8;spacingLeft=2;spacingRight=12;shape=cube;size=10;direction=south;fontStyle=4;html=1;whiteSpace=wrap;" vertex="1" parent="1">
          <mxGeometry x="620" y="917.75" width="140" height="70" as="geometry" />
        </mxCell>
        <mxCell id="7cFEA5xQlV3GQWKPo2S1-45" value="Function:&lt;br&gt;&lt;br&gt;vector multiplication" style="verticalAlign=top;align=left;spacingTop=8;spacingLeft=2;spacingRight=12;shape=cube;size=10;direction=south;fontStyle=4;html=1;whiteSpace=wrap;" vertex="1" parent="1">
          <mxGeometry x="610" y="1050" width="140" height="70" as="geometry" />
        </mxCell>
        <mxCell id="7cFEA5xQlV3GQWKPo2S1-47" value="Use" style="endArrow=open;endSize=12;dashed=1;html=1;rounded=0;exitX=0;exitY=0;exitDx=30;exitDy=0;exitPerimeter=0;entryX=0;entryY=0;entryDx=45;entryDy=140;entryPerimeter=0;" edge="1" parent="1" source="7cFEA5xQlV3GQWKPo2S1-79" target="7cFEA5xQlV3GQWKPo2S1-44">
          <mxGeometry width="160" relative="1" as="geometry">
            <mxPoint x="550" y="1297.75" as="sourcePoint" />
            <mxPoint x="500" y="1152.75" as="targetPoint" />
          </mxGeometry>
        </mxCell>
        <mxCell id="7cFEA5xQlV3GQWKPo2S1-48" value="Use" style="endArrow=open;endSize=12;dashed=1;html=1;rounded=0;exitX=0;exitY=0;exitDx=30;exitDy=0;exitPerimeter=0;entryX=0;entryY=0;entryDx=0;entryDy=130;entryPerimeter=0;" edge="1" parent="1" source="7cFEA5xQlV3GQWKPo2S1-79" target="7cFEA5xQlV3GQWKPo2S1-45">
          <mxGeometry width="160" relative="1" as="geometry">
            <mxPoint x="550" y="1297.75" as="sourcePoint" />
            <mxPoint x="710" y="1317.75" as="targetPoint" />
          </mxGeometry>
        </mxCell>
        <mxCell id="7cFEA5xQlV3GQWKPo2S1-49" value="function:&lt;br&gt;&lt;br&gt;Relu()" style="verticalAlign=top;align=left;spacingTop=8;spacingLeft=2;spacingRight=12;shape=cube;size=10;direction=south;fontStyle=4;html=1;whiteSpace=wrap;" vertex="1" parent="1">
          <mxGeometry x="830" y="882.75" width="80" height="60" as="geometry" />
        </mxCell>
        <mxCell id="7cFEA5xQlV3GQWKPo2S1-51" value="function:&lt;br&gt;&lt;br&gt;Tanh()" style="verticalAlign=top;align=left;spacingTop=8;spacingLeft=2;spacingRight=12;shape=cube;size=10;direction=south;fontStyle=4;html=1;whiteSpace=wrap;" vertex="1" parent="1">
          <mxGeometry x="830" y="967.75" width="80" height="60" as="geometry" />
        </mxCell>
        <mxCell id="7cFEA5xQlV3GQWKPo2S1-52" value="*" style="endArrow=open;html=1;endSize=12;startArrow=diamondThin;startSize=14;startFill=0;edgeStyle=orthogonalEdgeStyle;align=left;verticalAlign=bottom;rounded=0;exitX=0.186;exitY=-0.007;exitDx=0;exitDy=0;exitPerimeter=0;entryX=0;entryY=0;entryDx=35;entryDy=80;entryPerimeter=0;" edge="1" parent="1" source="7cFEA5xQlV3GQWKPo2S1-44" target="7cFEA5xQlV3GQWKPo2S1-49">
          <mxGeometry x="-1" y="3" relative="1" as="geometry">
            <mxPoint x="800" y="1292.25" as="sourcePoint" />
            <mxPoint x="920" y="1292.25" as="targetPoint" />
          </mxGeometry>
        </mxCell>
        <mxCell id="7cFEA5xQlV3GQWKPo2S1-55" value="*" style="endArrow=open;html=1;endSize=12;startArrow=diamondThin;startSize=14;startFill=0;edgeStyle=orthogonalEdgeStyle;align=left;verticalAlign=bottom;rounded=0;exitX=0.775;exitY=-0.007;exitDx=0;exitDy=0;exitPerimeter=0;entryX=0;entryY=0;entryDx=35;entryDy=80;entryPerimeter=0;" edge="1" parent="1" source="7cFEA5xQlV3GQWKPo2S1-44" target="7cFEA5xQlV3GQWKPo2S1-51">
          <mxGeometry x="-1" y="3" relative="1" as="geometry">
            <mxPoint x="310" y="1119.75" as="sourcePoint" />
            <mxPoint x="430" y="1119.75" as="targetPoint" />
          </mxGeometry>
        </mxCell>
        <mxCell id="7cFEA5xQlV3GQWKPo2S1-68" value="Neural Network" style="swimlane;fontStyle=0;childLayout=stackLayout;horizontal=1;startSize=26;fillColor=none;horizontalStack=0;resizeParent=1;resizeParentMax=0;resizeLast=0;collapsible=1;marginBottom=0;whiteSpace=wrap;html=1;" vertex="1" parent="1">
          <mxGeometry x="130" y="943.75" width="140" height="78" as="geometry">
            <mxRectangle x="220" y="1166" width="120" height="30" as="alternateBounds" />
          </mxGeometry>
        </mxCell>
        <mxCell id="7cFEA5xQlV3GQWKPo2S1-69" value="layer : Layer" style="text;strokeColor=none;fillColor=none;align=left;verticalAlign=top;spacingLeft=4;spacingRight=4;overflow=hidden;rotatable=0;points=[[0,0.5],[1,0.5]];portConstraint=eastwest;whiteSpace=wrap;html=1;" vertex="1" parent="7cFEA5xQlV3GQWKPo2S1-68">
          <mxGeometry y="26" width="140" height="26" as="geometry" />
        </mxCell>
        <mxCell id="7cFEA5xQlV3GQWKPo2S1-70" value="layer output : Array" style="text;strokeColor=none;fillColor=none;align=left;verticalAlign=top;spacingLeft=4;spacingRight=4;overflow=hidden;rotatable=0;points=[[0,0.5],[1,0.5]];portConstraint=eastwest;whiteSpace=wrap;html=1;" vertex="1" parent="7cFEA5xQlV3GQWKPo2S1-68">
          <mxGeometry y="52" width="140" height="26" as="geometry" />
        </mxCell>
        <mxCell id="7cFEA5xQlV3GQWKPo2S1-79" value="Function:&lt;br&gt;&lt;br&gt;Forward Propagation" style="verticalAlign=top;align=left;spacingTop=8;spacingLeft=2;spacingRight=12;shape=cube;size=10;direction=south;fontStyle=4;html=1;whiteSpace=wrap;" vertex="1" parent="1">
          <mxGeometry x="400" y="947.75" width="140" height="70" as="geometry" />
        </mxCell>
        <mxCell id="7cFEA5xQlV3GQWKPo2S1-85" value="Generate" style="endArrow=open;endSize=12;dashed=1;html=1;rounded=0;entryX=0.5;entryY=0;entryDx=0;entryDy=0;exitX=0.5;exitY=1;exitDx=0;exitDy=0;" edge="1" parent="1" source="7cFEA5xQlV3GQWKPo2S1-36" target="7cFEA5xQlV3GQWKPo2S1-41">
          <mxGeometry width="160" relative="1" as="geometry">
            <mxPoint x="40" y="1250" as="sourcePoint" />
            <mxPoint x="160" y="1340" as="targetPoint" />
          </mxGeometry>
        </mxCell>
        <mxCell id="7cFEA5xQlV3GQWKPo2S1-86" value="Use" style="endArrow=open;endSize=12;dashed=1;html=1;rounded=0;entryX=0;entryY=0;entryDx=40;entryDy=140;exitX=1;exitY=0.779;exitDx=0;exitDy=0;exitPerimeter=0;entryPerimeter=0;" edge="1" parent="1" source="7cFEA5xQlV3GQWKPo2S1-69" target="7cFEA5xQlV3GQWKPo2S1-79">
          <mxGeometry width="160" relative="1" as="geometry">
            <mxPoint x="300" y="1322.75" as="sourcePoint" />
            <mxPoint x="500" y="1172.75" as="targetPoint" />
          </mxGeometry>
        </mxCell>
        <mxCell id="7cFEA5xQlV3GQWKPo2S1-88" value="Layer" style="swimlane;fontStyle=0;childLayout=stackLayout;horizontal=1;startSize=26;fillColor=none;horizontalStack=0;resizeParent=1;resizeParentMax=0;resizeLast=0;collapsible=1;marginBottom=0;whiteSpace=wrap;html=1;" vertex="1" parent="1">
          <mxGeometry x="360" y="1107.75" width="160" height="104" as="geometry" />
        </mxCell>
        <mxCell id="7cFEA5xQlV3GQWKPo2S1-89" value="num of neurons" style="text;strokeColor=none;fillColor=none;align=left;verticalAlign=top;spacingLeft=4;spacingRight=4;overflow=hidden;rotatable=0;points=[[0,0.5],[1,0.5]];portConstraint=eastwest;whiteSpace=wrap;html=1;" vertex="1" parent="7cFEA5xQlV3GQWKPo2S1-88">
          <mxGeometry y="26" width="160" height="26" as="geometry" />
        </mxCell>
        <mxCell id="7cFEA5xQlV3GQWKPo2S1-90" value="type of activation functions" style="text;strokeColor=none;fillColor=none;align=left;verticalAlign=top;spacingLeft=4;spacingRight=4;overflow=hidden;rotatable=0;points=[[0,0.5],[1,0.5]];portConstraint=eastwest;whiteSpace=wrap;html=1;" vertex="1" parent="7cFEA5xQlV3GQWKPo2S1-88">
          <mxGeometry y="52" width="160" height="26" as="geometry" />
        </mxCell>
        <mxCell id="7cFEA5xQlV3GQWKPo2S1-91" value="pointer to weught &amp;amp; bias" style="text;strokeColor=none;fillColor=none;align=left;verticalAlign=top;spacingLeft=4;spacingRight=4;overflow=hidden;rotatable=0;points=[[0,0.5],[1,0.5]];portConstraint=eastwest;whiteSpace=wrap;html=1;" vertex="1" parent="7cFEA5xQlV3GQWKPo2S1-88">
          <mxGeometry y="78" width="160" height="26" as="geometry" />
        </mxCell>
        <mxCell id="7cFEA5xQlV3GQWKPo2S1-93" value="*" style="endArrow=open;html=1;endSize=12;startArrow=diamondThin;startSize=14;startFill=0;edgeStyle=orthogonalEdgeStyle;align=left;verticalAlign=bottom;rounded=0;exitX=0.5;exitY=0;exitDx=0;exitDy=0;entryX=0.446;entryY=1.033;entryDx=0;entryDy=0;entryPerimeter=0;" edge="1" parent="1" source="7cFEA5xQlV3GQWKPo2S1-32" target="7cFEA5xQlV3GQWKPo2S1-99">
          <mxGeometry x="-0.9203" y="-10" relative="1" as="geometry">
            <mxPoint x="220" y="1160" as="sourcePoint" />
            <mxPoint x="200" y="1130" as="targetPoint" />
            <Array as="points">
              <mxPoint x="220" y="1290" />
              <mxPoint x="218" y="1290" />
            </Array>
            <mxPoint as="offset" />
          </mxGeometry>
        </mxCell>
        <mxCell id="7cFEA5xQlV3GQWKPo2S1-97" value="*" style="endArrow=open;html=1;endSize=12;startArrow=diamondThin;startSize=14;startFill=0;edgeStyle=orthogonalEdgeStyle;align=left;verticalAlign=bottom;rounded=0;exitX=1;exitY=0.5;exitDx=0;exitDy=0;entryX=0;entryY=0.5;entryDx=0;entryDy=0;" edge="1" parent="1" source="7cFEA5xQlV3GQWKPo2S1-82" target="7cFEA5xQlV3GQWKPo2S1-90">
          <mxGeometry x="-1" y="3" relative="1" as="geometry">
            <mxPoint x="300" y="1140" as="sourcePoint" />
            <mxPoint x="460" y="1140" as="targetPoint" />
          </mxGeometry>
        </mxCell>
      </root>
    </mxGraphModel>
  </diagram>
</mxfile>
